<svg width="1325" height="1149" viewBox="0 0 1325 1149" fill="none" xmlns="http://www.w3.org/2000/svg">
<path d="M1324 1H0.5V1148H1324V1Z" fill="#D9E0D2" stroke="#D9E0D2" />
<path d="M346 458C364.8 330 484.833 295.667 542.5 294.5H1090C1230.4 304.1 1268.17 427.5 1269.5 488C1270.83 566 1272.7 759 1269.5 907C1266.3 1055 1138.17 1095 1074.5 1096.5H542.5C390.1 1099.7 348 971.5 346 907V458Z" fill="#00A1B4" stroke="#00A1B4"/>
<path d="M1218 482V1036.5C1216.4 1040.5 1211.67 1043.83 1209.5 1045H569.5V482H1218Z" fill="#D9E0D2" stroke="#D9E0D2"/>
<path d="M811.5 597C727.5 604.2 709.167 665.667 710.5 695.5V875.5C705.3 967.1 767.667 991 799.5 991.5H1068C1138.8 988.7 1161.83 935.667 1164.5 909.5V695.5C1160.1 620.3 1102.67 598.5 1074.5 597H811.5Z" fill="#00A2B4" stroke="#00A2B2"/>
</svg>
